A coming-of-age story that follows 12-year-old Andy Nichol (Chase Ellison), a bright student who, like most kids his age, will do anything to avoid conflict for fear of suffering overwhelming ridicule and punishment from his junior high school peers. Everyone's favorite teacher, Mr. Simon (Ed Harris), pairs Andy with the school's biggest outcast and social pariah, Stanley, aka "Big G" (Alexander Walters) on a critical term project. Sporting thick orange hair, a head too big for his body and ears too big for his head, "Big G" has been the object of ridicule since grade school. Before long, Andy will learn that there was truly a method behind Mr. Simon's madness as to why he teamed these two up. As the story unfolds, Mr. Simon finds himself the target of a malicious rumor after Principal Kelner (Amy Madigan) suspends a school bully for brutally beating up a female classmate who he thinks has "cooties." When Andy watches "Big G" fearlessly confront the school bully, a series of events are triggered, which change the lives of both young men - and their teacher - forever. Much to Andy's surprise "Big G" is brilliant, kind, tolerant and a decent human being, who has more dignity than anyone Andy has ever encountered. 



General
Complete name                    : That's.What.I.Am.[2011].DvdRip.XviD-Knã\That's.What.I.Am.[2011].DvdRip.XviD-Knã.avi
Format                           : AVI
Format/Info                      : Audio Video Interleave
File size                        : 1.46 GiB
Duration                         : 1h 37mn
Overall bit rate                 : 2 148 Kbps
Writing application              : VirtualDubMod 1.5.4.1 (build 2178/release)
Writing library                  : VirtualDubMod build 2178/release

Video
ID                               : 0
Format                           : MPEG-4 Visual
Format profile                   : Advanced Simple@L5
Format settings, BVOP            : 1
Format settings, QPel            : No
Format settings, GMC             : No warppoints
Format settings, Matrix          : Custom
Codec ID                         : XVID
Codec ID/Hint                    : XviD
Duration                         : 1h 37mn
Bit rate                         : 1 693 Kbps
Width                            : 720 pixels
Height                           : 384 pixels
Display aspect ratio             : 1.875
Frame rate                       : 25.000 fps
Color space                      : YUV
Chroma subsampling               : 4:2:0
Bit depth                        : 8 bits
Scan type                        : Progressive
Compression mode                 : Lossy
Bits/(Pixel*Frame)               : 0.245
Stream size                      : 1.15 GiB (79%)
Writing library                  : XviD 1.2.1 (UTC 2008-12-04)

Audio
ID                               : 1
Format                           : AC-3
Format/Info                      : Audio Coding 3
Mode extension                   : CM (complete main)
Codec ID                         : 2000
Duration                         : 1h 37mn
Bit rate mode                    : Constant
Bit rate                         : 448 Kbps
Channel(s)                       : 6 channels
Channel positions                : Front: L C R, Side: L R, LFE
Sampling rate                    : 48.0 KHz
Bit depth                        : 16 bits
Compression mode                 : Lossy
Stream size                      : 311 MiB (21%)
Alignment                        : Split accross interleaves
Interleave, duration             : 96 ms (2.40 video frames)
Interleave, preload duration     : 96 ms
Language                         : English

